<svg xmlns="http://www.w3.org/2000/svg" viewBox="0 0 106 106"><defs><style>.cls-1{fill:#fff;}.cls-2{fill:#ffc868;}.cls-3{fill:#ff7575;}.cls-4{fill:#171c1f;}.cls-5{opacity:0.25;}.cls-6{opacity:0.1;}</style></defs><title>pencil</title><g id="Pencil"><g id="Fill"><rect class="cls-1" x="4" y="18" width="72" height="84" rx="4" ry="4"/></g><g id="Yellow"><rect class="cls-2" x="33.77" y="31.22" width="66.47" height="15.56" transform="translate(-7.95 58.8) rotate(-45)"/></g><g id="Red"><rect class="cls-3" x="89.05" y="4.22" width="9.9" height="15.56" transform="translate(19.05 69.98) rotate(-45)"/></g><g id="Inner_Lines_1" data-name="Inner Lines 1"><path class="cls-4" d="M36.29,56.71l13,13,1.41-1.41-13-13ZM85.71,9.29l-1.41,1.41,11,11,1.41-1.41Z"/></g><g id="Inner_Lines_2" data-name="Inner Lines 2" class="cls-5"><path class="cls-4" d="M43,51V50H12v2H42ZM60,76V74H38l-5,2ZM35.26,59.86l.16,0L36,58.05l0,0H12v2H35.21ZM52,42H12v2H50ZM36,26H12v2H36Zm24,8H12v2H58ZM29.61,74H12v2H28.81Zm22.1-7.71-12-12-1.41,1.41,12,12,.53-.53L50,68H68V66H52ZM32.81,66H12v2H32ZM87.71,8.29,86.29,9.71l10,10,1.41-1.41ZM58,60H68V58H60ZM12,92H52V90H12Zm0-8H68V82H12Z"/></g><g id="Shadows" class="cls-6"><path d="M72,100H8a4,4,0,0,1-4-4v2a4,4,0,0,0,4,4H72a4,4,0,0,0,4-4V96A4,4,0,0,1,72,100ZM36,72.65l10.86-4.35L101.17,14l-1.5-1.5L46.86,65.31,36,69.65V67H34.55l-1.2,3H36Zm13.39-1.26a2,2,0,0,1-.81.51h0l-19.92,8,0,0,0,0h0A2,2,0,0,1,28,80a2,2,0,0,1-1.19-.4l-.63,1.57-.05.13,0,.11h0a2,2,0,0,0,2.49,2.49h0l0,0,0,0,19.92-8h0a2,2,0,0,0,.81-.51l0,0L76,48.83v-4L49.41,71.41Z"/></g><g id="Outline"><path class="cls-4" d="M105.41,12.59h0l-12-12a2,2,0,0,0-2.83,0L76.06,15.11A8,8,0,0,0,72,14H8a8,8,0,0,0-8,8V98a8,8,0,0,0,8,8H72a8,8,0,0,0,8-8V40.83l25.41-25.41a2,2,0,0,0,0-2.83ZM76,98a4,4,0,0,1-4,4H8a4,4,0,0,1-4-4V22a4,4,0,0,1,4-4H72a4,4,0,0,1,1,.15L34.59,56.59l0,0a2,2,0,0,0-.51.81h0l-7.9,19.76-.05.14,0,.11h0A2,2,0,0,0,26,78a2,2,0,0,0,2,2,2,2,0,0,0,.59-.1h0l0,0,0,0,19.92-8h0a2,2,0,0,0,.81-.51l0,0L76,44.83ZM46.86,68.31,36,72.65V70H33.35l4.35-10.86L92,4.83,101.17,14Z"/></g></g></svg>